<?xml version="1.0" encoding="UTF-8" standalone="no"?>
<!-- Created with Inkscape (http://www.inkscape.org/) -->

<svg
   xmlns:osb="http://www.openswatchbook.org/uri/2009/osb"
   xmlns:dc="http://purl.org/dc/elements/1.1/"
   xmlns:cc="http://creativecommons.org/ns#"
   xmlns:rdf="http://www.w3.org/1999/02/22-rdf-syntax-ns#"
   xmlns:svg="http://www.w3.org/2000/svg"
   xmlns="http://www.w3.org/2000/svg"
   xmlns:xlink="http://www.w3.org/1999/xlink"
   xmlns:sodipodi="http://sodipodi.sourceforge.net/DTD/sodipodi-0.dtd"
   xmlns:inkscape="http://www.inkscape.org/namespaces/inkscape"
   width="800"
   height="333"
   viewBox="0 0 211.66666 88.106252"
   version="1.1"
   id="svg1198"
   inkscape:version="0.92.3 (2405546, 2018-03-11)"
   sodipodi:docname="broadcast_3x1_to_3x4.svg"
   inkscape:export-filename="C:\Users\rhewett\homestead\academic\research\distdl\distdl\docs\_images\broadcast_1_to_2x3.png"
   inkscape:export-xdpi="400"
   inkscape:export-ydpi="400">
  <defs
     id="defs1192">
    <linearGradient
       id="linearGradient11289"
       osb:paint="solid">
      <stop
         style="stop-color:#000000;stop-opacity:1;"
         offset="0"
         id="stop11287" />
    </linearGradient>
    <linearGradient
       id="linearGradient11283">
      <stop
         style="stop-color:#000000;stop-opacity:1;"
         offset="0"
         id="stop11281" />
    </linearGradient>
    <linearGradient
       id="linearGradient11275">
      <stop
         style="stop-color:#000000;stop-opacity:1;"
         offset="0"
         id="stop11273" />
    </linearGradient>
    <linearGradient
       id="linearGradient10422"
       osb:paint="solid">
      <stop
         style="stop-color:#ffffff;stop-opacity:1;"
         offset="0"
         id="stop10420" />
    </linearGradient>
    <linearGradient
       id="linearGradient10404">
      <stop
         style="stop-color:#ffffff;stop-opacity:1;"
         offset="0"
         id="stop10402" />
    </linearGradient>
    <linearGradient
       id="linearGradient3907">
      <stop
         style="stop-color:#0000e6;stop-opacity:1;"
         offset="0"
         id="stop3905" />
    </linearGradient>
    <linearGradient
       id="linearGradient3553">
      <stop
         style="stop-color:#004126;stop-opacity:1;"
         offset="0"
         id="stop3551" />
    </linearGradient>
    <inkscape:perspective
       sodipodi:type="inkscape:persp3d"
       inkscape:vp_x="0 : 44.053126 : 1"
       inkscape:vp_y="116.41666 : 84.666669 : 1"
       inkscape:vp_z="181.23958 : 43.656251 : 1"
       inkscape:persp3d-origin="105.83333 : 29.368751 : 1"
       id="perspective1493" />
    <marker
       inkscape:stockid="Arrow2Mend"
       orient="auto"
       refY="0.0"
       refX="0.0"
       id="Arrow2Mend"
       style="overflow:visible;"
       inkscape:isstock="true">
      <path
         id="path7269"
         style="fill-rule:evenodd;stroke-width:0.625;stroke-linejoin:round;stroke:#000000;stroke-opacity:1;fill:#000000;fill-opacity:1"
         d="M 8.7185878,4.0337352 L -2.2072895,0.016013256 L 8.7185884,-4.0017078 C 6.9730900,-1.6296469 6.9831476,1.6157441 8.7185878,4.0337352 z "
         transform="scale(0.6) rotate(180) translate(0,0)" />
    </marker>
    <marker
       inkscape:stockid="Arrow2Send"
       orient="auto"
       refY="0.0"
       refX="0.0"
       id="Arrow2Send"
       style="overflow:visible;"
       inkscape:isstock="true">
      <path
         id="path7275"
         style="fill-rule:evenodd;stroke-width:0.625;stroke-linejoin:round;stroke:#000000;stroke-opacity:1;fill:#000000;fill-opacity:1"
         d="M 8.7185878,4.0337352 L -2.2072895,0.016013256 L 8.7185884,-4.0017078 C 6.9730900,-1.6296469 6.9831476,1.6157441 8.7185878,4.0337352 z "
         transform="scale(0.3) rotate(180) translate(-2.3,0)" />
    </marker>
    <marker
       inkscape:stockid="Arrow2Lend"
       orient="auto"
       refY="0.0"
       refX="0.0"
       id="marker7552"
       style="overflow:visible;"
       inkscape:isstock="true">
      <path
         id="path7550"
         style="fill-rule:evenodd;stroke-width:0.625;stroke-linejoin:round;stroke:#000000;stroke-opacity:1;fill:#000000;fill-opacity:1"
         d="M 8.7185878,4.0337352 L -2.2072895,0.016013256 L 8.7185884,-4.0017078 C 6.9730900,-1.6296469 6.9831476,1.6157441 8.7185878,4.0337352 z "
         transform="scale(1.1) rotate(180) translate(1,0)" />
    </marker>
    <marker
       inkscape:stockid="Arrow1Send"
       orient="auto"
       refY="0.0"
       refX="0.0"
       id="Arrow1Send"
       style="overflow:visible;"
       inkscape:isstock="true">
      <path
         id="path7257"
         d="M 0.0,0.0 L 5.0,-5.0 L -12.5,0.0 L 5.0,5.0 L 0.0,0.0 z "
         style="fill-rule:evenodd;stroke:#000000;stroke-width:1pt;stroke-opacity:1;fill:#000000;fill-opacity:1"
         transform="scale(0.2) rotate(180) translate(6,0)" />
    </marker>
    <marker
       inkscape:stockid="Arrow2Lend"
       orient="auto"
       refY="0.0"
       refX="0.0"
       id="Arrow2Lend"
       style="overflow:visible;"
       inkscape:isstock="true">
      <path
         id="path7263"
         style="fill-rule:evenodd;stroke-width:0.625;stroke-linejoin:round;stroke:#000000;stroke-opacity:1;fill:#000000;fill-opacity:1"
         d="M 8.7185878,4.0337352 L -2.2072895,0.016013256 L 8.7185884,-4.0017078 C 6.9730900,-1.6296469 6.9831476,1.6157441 8.7185878,4.0337352 z "
         transform="scale(1.1) rotate(180) translate(1,0)" />
    </marker>
    <linearGradient
       id="DistDL_Grey"
       osb:paint="solid">
      <stop
         style="stop-color:#e1e1e1;stop-opacity:1;"
         offset="0"
         id="stop7082" />
    </linearGradient>
    <linearGradient
       id="DistDL_White"
       osb:paint="solid">
      <stop
         style="stop-color:#fefffa;stop-opacity:1;"
         offset="0"
         id="stop5437" />
    </linearGradient>
    <linearGradient
       id="DistDL_Blue"
       osb:paint="solid"
       gradientTransform="matrix(0,0,0,0,840.47424,2371.5234)">
      <stop
         style="stop-color:#1f7fc9;stop-opacity:1;"
         offset="0"
         id="stop5431" />
    </linearGradient>
    <linearGradient
       id="DistDL_Yellow"
       osb:paint="solid"
       gradientTransform="matrix(0,0,0,0,880.81752,197.20354)">
      <stop
         style="stop-color:#fded01;stop-opacity:1;"
         offset="0"
         id="stop5425" />
    </linearGradient>
    <linearGradient
       id="DistDL_Red"
       osb:paint="solid"
       gradientTransform="matrix(0,0,0,0,2183.3243,366.88454)">
      <stop
         style="stop-color:#f60201;stop-opacity:1;"
         offset="0"
         id="stop5419" />
    </linearGradient>
    <g
       id="g932">
      <symbol
         id="lx-text855-glyph0-0"
         overflow="visible"
         style="overflow:visible">
        <path
           id="path920"
           d=""
           style="stroke:none"
           inkscape:connector-curvature="0" />
      </symbol>
      <symbol
         id="lx-text855-glyph0-1"
         overflow="visible"
         style="overflow:visible">
        <path
           id="path923"
           d="M 3.015625,-3.15625 H 4.71875 c 1.40625,0 2.796875,-1.03125 2.796875,-2.140625 0,-0.78125 -0.65625,-1.515625 -1.96875,-1.515625 h -3.21875 c -0.1875,0 -0.296875,0 -0.296875,0.1875 0,0.125 0.078125,0.125 0.28125,0.125 0.125,0 0.3125,0.015625 0.421875,0.015625 0.171875,0.03125 0.21875,0.046875 0.21875,0.171875 0,0.03125 0,0.0625 -0.03125,0.1875 l -1.34375,5.34375 c -0.09375,0.390625 -0.109375,0.46875 -0.90625,0.46875 -0.15625,0 -0.265625,0 -0.265625,0.1875 C 0.40625,0 0.515625,0 0.546875,0 0.828125,0 1.53125,-0.03125 1.8125,-0.03125 c 0.21875,0 0.4375,0.015625 0.640625,0.015625 0.21875,0 0.4375,0.015625 0.640625,0.015625 0.078125,0 0.203125,0 0.203125,-0.203125 0,-0.109375 -0.09375,-0.109375 -0.28125,-0.109375 -0.359375,0 -0.640625,0 -0.640625,-0.171875 0,-0.0625 0.015625,-0.109375 0.03125,-0.171875 z M 3.734375,-6.125 C 3.828125,-6.46875 3.84375,-6.5 4.28125,-6.5 h 0.953125 c 0.828125,0 1.359375,0.265625 1.359375,0.953125 0,0.390625 -0.203125,1.25 -0.59375,1.609375 -0.5,0.453125 -1.09375,0.53125 -1.53125,0.53125 H 3.0625 Z m 0,0"
           style="stroke:none"
           inkscape:connector-curvature="0" />
      </symbol>
      <symbol
         id="lx-text855-glyph1-0"
         overflow="visible"
         style="overflow:visible">
        <path
           id="path926"
           d=""
           style="stroke:none"
           inkscape:connector-curvature="0" />
      </symbol>
      <symbol
         id="lx-text855-glyph1-1"
         overflow="visible"
         style="overflow:visible">
        <path
           id="path929"
           d="M 1.734375,-0.734375 C 1.671875,-0.5 1.4375,-0.125 1.078125,-0.125 c -0.015625,0 -0.234375,0 -0.375,-0.09375 0.28125,-0.09375 0.3125,-0.34375 0.3125,-0.390625 0,-0.15625 -0.125,-0.25 -0.28125,-0.25 -0.203125,0 -0.40625,0.15625 -0.40625,0.421875 0,0.34375 0.390625,0.5 0.734375,0.5 0.328125,0 0.609375,-0.1875 0.78125,-0.484375 C 2.015625,-0.0625 2.390625,0.0625 2.671875,0.0625 c 0.8125,0 1.234375,-0.859375 1.234375,-1.0625 0,-0.09375 -0.09375,-0.09375 -0.109375,-0.09375 -0.109375,0 -0.109375,0.046875 -0.140625,0.125 -0.140625,0.484375 -0.5625,0.84375 -0.953125,0.84375 -0.28125,0 -0.421875,-0.1875 -0.421875,-0.453125 0,-0.1875 0.171875,-0.8125 0.359375,-1.59375 C 2.78125,-2.703125 3.09375,-2.875 3.328125,-2.875 c 0.015625,0 0.21875,0 0.375,0.09375 -0.21875,0.0625 -0.3125,0.265625 -0.3125,0.390625 0,0.140625 0.125,0.25 0.28125,0.25 0.15625,0 0.390625,-0.125 0.390625,-0.421875 0,-0.390625 -0.453125,-0.515625 -0.71875,-0.515625 -0.359375,0 -0.640625,0.234375 -0.78125,0.5 -0.125,-0.28125 -0.453125,-0.5 -0.84375,-0.5 C 0.9375,-3.078125 0.5,-2.21875 0.5,-2 c 0,0.078125 0.09375,0.078125 0.109375,0.078125 0.09375,0 0.09375,-0.015625 0.140625,-0.109375 C 0.921875,-2.578125 1.359375,-2.875 1.703125,-2.875 1.9375,-2.875 2.125,-2.75 2.125,-2.421875 2.125,-2.28125 2.03125,-1.9375 1.96875,-1.6875 Z m 0,0"
           style="stroke:none"
           inkscape:connector-curvature="0" />
      </symbol>
    </g>
    <g
       id="g958">
      <symbol
         id="lx-text855-4-glyph0-0"
         overflow="visible"
         style="overflow:visible">
        <path
           id="path946"
           d=""
           style="stroke:none"
           inkscape:connector-curvature="0" />
      </symbol>
      <symbol
         id="lx-text855-4-glyph0-1"
         overflow="visible"
         style="overflow:visible">
        <path
           id="path949"
           d="M 3.015625,-3.15625 H 4.71875 c 1.40625,0 2.796875,-1.03125 2.796875,-2.140625 0,-0.78125 -0.65625,-1.515625 -1.96875,-1.515625 h -3.21875 c -0.1875,0 -0.296875,0 -0.296875,0.1875 0,0.125 0.078125,0.125 0.28125,0.125 0.125,0 0.3125,0.015625 0.421875,0.015625 0.171875,0.03125 0.21875,0.046875 0.21875,0.171875 0,0.03125 0,0.0625 -0.03125,0.1875 l -1.34375,5.34375 c -0.09375,0.390625 -0.109375,0.46875 -0.90625,0.46875 -0.15625,0 -0.265625,0 -0.265625,0.1875 C 0.40625,0 0.515625,0 0.546875,0 0.828125,0 1.53125,-0.03125 1.8125,-0.03125 c 0.21875,0 0.4375,0.015625 0.640625,0.015625 0.21875,0 0.4375,0.015625 0.640625,0.015625 0.078125,0 0.203125,0 0.203125,-0.203125 0,-0.109375 -0.09375,-0.109375 -0.28125,-0.109375 -0.359375,0 -0.640625,0 -0.640625,-0.171875 0,-0.0625 0.015625,-0.109375 0.03125,-0.171875 z M 3.734375,-6.125 C 3.828125,-6.46875 3.84375,-6.5 4.28125,-6.5 h 0.953125 c 0.828125,0 1.359375,0.265625 1.359375,0.953125 0,0.390625 -0.203125,1.25 -0.59375,1.609375 -0.5,0.453125 -1.09375,0.53125 -1.53125,0.53125 H 3.0625 Z m 0,0"
           style="stroke:none"
           inkscape:connector-curvature="0" />
      </symbol>
      <symbol
         id="lx-text855-4-glyph1-0"
         overflow="visible"
         style="overflow:visible">
        <path
           id="path952"
           d=""
           style="stroke:none"
           inkscape:connector-curvature="0" />
      </symbol>
      <symbol
         id="lx-text855-4-glyph1-1"
         overflow="visible"
         style="overflow:visible">
        <path
           id="path955"
           d="M 3.875,-2.625 C 3.90625,-2.71875 3.90625,-2.734375 3.90625,-2.78125 3.90625,-2.921875 3.796875,-3 3.671875,-3 3.59375,-3 3.46875,-2.96875 3.390625,-2.84375 3.359375,-2.796875 3.3125,-2.578125 3.28125,-2.4375 L 3.125,-1.859375 c -0.03125,0.171875 -0.25,1.046875 -0.28125,1.125 0,0 -0.3125,0.609375 -0.84375,0.609375 -0.484375,0 -0.484375,-0.453125 -0.484375,-0.578125 0,-0.375 0.15625,-0.8125 0.375,-1.359375 C 1.96875,-2.28125 2,-2.359375 2,-2.484375 2,-2.8125 1.71875,-3.078125 1.34375,-3.078125 0.640625,-3.078125 0.328125,-2.125 0.328125,-2 c 0,0.078125 0.09375,0.078125 0.125,0.078125 0.09375,0 0.09375,-0.03125 0.125,-0.109375 C 0.75,-2.609375 1.046875,-2.875 1.328125,-2.875 1.4375,-2.875 1.5,-2.796875 1.5,-2.640625 c 0,0.171875 -0.0625,0.3125 -0.09375,0.40625 C 1.0625,-1.375 1,-1.125 1,-0.8125 1,-0.703125 1,-0.375 1.265625,-0.140625 1.484375,0.03125 1.78125,0.0625 1.96875,0.0625 2.25,0.0625 2.5,-0.03125 2.71875,-0.25 2.640625,0.140625 2.5625,0.4375 2.265625,0.78125 2.078125,1 1.796875,1.21875 1.421875,1.21875 c -0.046875,0 -0.375,0 -0.515625,-0.21875 0.375,-0.046875 0.375,-0.375 0.375,-0.390625 0,-0.21875 -0.203125,-0.265625 -0.265625,-0.265625 -0.171875,0 -0.40625,0.140625 -0.40625,0.46875 0,0.34375 0.328125,0.609375 0.828125,0.609375 C 2.140625,1.421875 3,0.875 3.21875,0 Z m 0,0"
           style="stroke:none"
           inkscape:connector-curvature="0" />
      </symbol>
    </g>
    <marker
       inkscape:isstock="true"
       style="overflow:visible"
       id="Arrow2Mend-0"
       refX="0"
       refY="0"
       orient="auto"
       inkscape:stockid="Arrow2Mend">
      <path
         inkscape:connector-curvature="0"
         transform="scale(-0.6)"
         d="M 8.7185878,4.0337352 -2.2072895,0.01601326 8.7185884,-4.0017078 c -1.7454984,2.3720609 -1.7354408,5.6174519 -6e-7,8.035443 z"
         style="fill:#000000;fill-opacity:1;fill-rule:evenodd;stroke:#000000;stroke-width:0.625;stroke-linejoin:round;stroke-opacity:1"
         id="path7269-2" />
    </marker>
    <marker
       inkscape:isstock="true"
       style="overflow:visible"
       id="Arrow2Mend-0-2"
       refX="0"
       refY="0"
       orient="auto"
       inkscape:stockid="Arrow2Mend">
      <path
         inkscape:connector-curvature="0"
         transform="scale(-0.6)"
         d="M 8.7185878,4.0337352 -2.2072895,0.01601326 8.7185884,-4.0017078 c -1.7454984,2.3720609 -1.7354408,5.6174519 -6e-7,8.035443 z"
         style="fill:#000000;fill-opacity:1;fill-rule:evenodd;stroke:#000000;stroke-width:0.625;stroke-linejoin:round;stroke-opacity:1"
         id="path7269-2-1" />
    </marker>
    <linearGradient
       inkscape:collect="always"
       xlink:href="#DistDL_White"
       id="linearGradient11291"
       gradientUnits="userSpaceOnUse"
       x1="41.193157"
       y1="39.341076"
       x2="51.411011"
       y2="39.341076"
       gradientTransform="translate(-4.9999973e-7,-0.18274139)" />
    <linearGradient
       inkscape:collect="always"
       xlink:href="#DistDL_Yellow"
       id="linearGradient11295"
       gradientUnits="userSpaceOnUse"
       gradientTransform="translate(-4.9999973e-7,-0.18274139)" />
    <linearGradient
       inkscape:collect="always"
       xlink:href="#DistDL_Yellow"
       id="linearGradient983"
       gradientUnits="userSpaceOnUse"
       gradientTransform="translate(-4.6302124,-204.74224)" />
    <linearGradient
       inkscape:collect="always"
       xlink:href="#DistDL_White"
       id="linearGradient985"
       gradientUnits="userSpaceOnUse"
       x1="150.99524"
       y1="248.53078"
       x2="179.73393"
       y2="248.53078"
       gradientTransform="translate(-4.6302124,-204.74224)" />
    <linearGradient
       inkscape:collect="always"
       xlink:href="#DistDL_Red"
       id="linearGradient987"
       gradientUnits="userSpaceOnUse"
       gradientTransform="translate(-4.6302124,-204.74224)" />
    <linearGradient
       inkscape:collect="always"
       xlink:href="#DistDL_White"
       id="linearGradient989"
       gradientUnits="userSpaceOnUse"
       x1="150.99524"
       y1="248.53078"
       x2="179.73393"
       y2="248.53078"
       gradientTransform="translate(-4.6302124,-204.74224)" />
    <linearGradient
       inkscape:collect="always"
       xlink:href="#DistDL_Yellow"
       id="linearGradient991"
       gradientUnits="userSpaceOnUse"
       gradientTransform="translate(-4.6302124,-204.74224)" />
    <linearGradient
       inkscape:collect="always"
       xlink:href="#DistDL_White"
       id="linearGradient993"
       gradientUnits="userSpaceOnUse"
       x1="150.99524"
       y1="248.53078"
       x2="179.73393"
       y2="248.53078"
       gradientTransform="translate(-4.6302124,-204.74224)" />
    <linearGradient
       inkscape:collect="always"
       xlink:href="#DistDL_Red"
       id="linearGradient995"
       gradientUnits="userSpaceOnUse"
       gradientTransform="translate(-4.6302124,-204.74224)" />
    <linearGradient
       inkscape:collect="always"
       xlink:href="#DistDL_White"
       id="linearGradient997"
       gradientUnits="userSpaceOnUse"
       x1="150.99524"
       y1="248.53078"
       x2="179.73393"
       y2="248.53078"
       gradientTransform="translate(-4.6302124,-204.74224)" />
    <linearGradient
       inkscape:collect="always"
       xlink:href="#DistDL_Yellow"
       id="linearGradient999"
       gradientUnits="userSpaceOnUse"
       gradientTransform="translate(-4.6302124,-204.74224)" />
    <linearGradient
       inkscape:collect="always"
       xlink:href="#DistDL_White"
       id="linearGradient1001"
       gradientUnits="userSpaceOnUse"
       x1="150.99524"
       y1="248.53078"
       x2="179.73393"
       y2="248.53078"
       gradientTransform="translate(-4.6302124,-204.74224)" />
    <linearGradient
       inkscape:collect="always"
       xlink:href="#DistDL_Red"
       id="linearGradient1003"
       gradientUnits="userSpaceOnUse"
       gradientTransform="translate(-4.6302124,-204.74224)" />
    <linearGradient
       inkscape:collect="always"
       xlink:href="#DistDL_White"
       id="linearGradient1005"
       gradientUnits="userSpaceOnUse"
       x1="150.99524"
       y1="248.53078"
       x2="179.73393"
       y2="248.53078"
       gradientTransform="translate(-4.6302124,-204.74224)" />
    <linearGradient
       inkscape:collect="always"
       xlink:href="#DistDL_Blue"
       id="linearGradient999-4"
       gradientUnits="userSpaceOnUse"
       gradientTransform="translate(-4.6302086,-214.00266)" />
    <linearGradient
       inkscape:collect="always"
       xlink:href="#DistDL_White"
       id="linearGradient1001-7"
       gradientUnits="userSpaceOnUse"
       x1="150.99524"
       y1="248.53078"
       x2="179.73393"
       y2="248.53078"
       gradientTransform="translate(-4.6302086,-214.00266)" />
    <linearGradient
       inkscape:collect="always"
       xlink:href="#DistDL_Blue"
       id="linearGradient1206"
       gradientUnits="userSpaceOnUse"
       gradientTransform="translate(-4.6302086,-214.00266)" />
    <linearGradient
       inkscape:collect="always"
       xlink:href="#DistDL_White"
       id="linearGradient1208"
       gradientUnits="userSpaceOnUse"
       gradientTransform="translate(-4.6302086,-214.00266)"
       x1="150.99524"
       y1="248.53078"
       x2="179.73393"
       y2="248.53078" />
    <linearGradient
       inkscape:collect="always"
       xlink:href="#DistDL_Blue"
       id="linearGradient1210"
       gradientUnits="userSpaceOnUse"
       gradientTransform="translate(-4.6302086,-214.00266)" />
    <linearGradient
       inkscape:collect="always"
       xlink:href="#DistDL_White"
       id="linearGradient1212"
       gradientUnits="userSpaceOnUse"
       gradientTransform="translate(-4.6302086,-214.00266)"
       x1="150.99524"
       y1="248.53078"
       x2="179.73393"
       y2="248.53078" />
    <linearGradient
       inkscape:collect="always"
       xlink:href="#DistDL_Blue"
       id="linearGradient999-4-4"
       gradientUnits="userSpaceOnUse"
       gradientTransform="translate(4.6302113,-214.00266)" />
    <linearGradient
       inkscape:collect="always"
       xlink:href="#DistDL_White"
       id="linearGradient1001-7-5"
       gradientUnits="userSpaceOnUse"
       x1="150.99524"
       y1="248.53078"
       x2="179.73393"
       y2="248.53078"
       gradientTransform="translate(4.6302113,-214.00266)" />
    <linearGradient
       inkscape:collect="always"
       xlink:href="#DistDL_Red"
       id="linearGradient1003-4"
       gradientUnits="userSpaceOnUse"
       gradientTransform="translate(4.6302113,-204.74224)" />
    <linearGradient
       inkscape:collect="always"
       xlink:href="#DistDL_White"
       id="linearGradient1005-7"
       gradientUnits="userSpaceOnUse"
       x1="150.99524"
       y1="248.53078"
       x2="179.73393"
       y2="248.53078"
       gradientTransform="translate(4.6302113,-204.74224)" />
    <linearGradient
       inkscape:collect="always"
       xlink:href="#DistDL_Yellow"
       id="linearGradient1292"
       gradientUnits="userSpaceOnUse"
       gradientTransform="translate(4.6302113,-204.74224)" />
    <linearGradient
       inkscape:collect="always"
       xlink:href="#DistDL_White"
       id="linearGradient1294"
       gradientUnits="userSpaceOnUse"
       gradientTransform="translate(4.6302113,-204.74224)"
       x1="150.99524"
       y1="248.53078"
       x2="179.73393"
       y2="248.53078" />
    <linearGradient
       gradientTransform="translate(1.0000003e-6,-9.443161)"
       inkscape:collect="always"
       xlink:href="#DistDL_Blue"
       id="linearGradient11295-0"
       gradientUnits="userSpaceOnUse" />
    <linearGradient
       gradientTransform="translate(1.0000003e-6,-9.443161)"
       inkscape:collect="always"
       xlink:href="#DistDL_White"
       id="linearGradient11291-5"
       gradientUnits="userSpaceOnUse"
       x1="41.193157"
       y1="39.341076"
       x2="51.411011"
       y2="39.341076" />
    <linearGradient
       gradientTransform="translate(1.0000003e-6,9.0776837)"
       inkscape:collect="always"
       xlink:href="#DistDL_Red"
       id="linearGradient11295-2"
       gradientUnits="userSpaceOnUse" />
    <linearGradient
       gradientTransform="translate(1.0000003e-6,9.0776837)"
       inkscape:collect="always"
       xlink:href="#DistDL_White"
       id="linearGradient11291-8"
       gradientUnits="userSpaceOnUse"
       x1="41.193157"
       y1="39.341076"
       x2="51.411011"
       y2="39.341076" />
  </defs>
  <sodipodi:namedview
     id="base"
     pagecolor="#ffffff"
     bordercolor="#666666"
     borderopacity="1.0"
     inkscape:pageopacity="0.0"
     inkscape:pageshadow="2"
     inkscape:zoom="2.8284271"
     inkscape:cx="341.99875"
     inkscape:cy="67.903508"
     inkscape:document-units="px"
     inkscape:current-layer="layer2"
     showgrid="true"
     units="px"
     inkscape:window-width="3840"
     inkscape:window-height="2080"
     inkscape:window-x="2869"
     inkscape:window-y="-11"
     inkscape:window-maximized="1"
     inkscape:snap-grids="true"
     inkscape:measure-start="0,0"
     inkscape:measure-end="0,0"
     showguides="true"
     inkscape:guide-bbox="true"
     inkscape:snap-bbox="true"
     inkscape:snap-nodes="false"
     inkscape:snap-others="false"
     inkscape:snap-bbox-midpoints="true"
     inkscape:snap-bbox-edge-midpoints="true"
     inkscape:snap-page="true"
     inkscape:snap-to-guides="true">
    <inkscape:grid
       type="xygrid"
       id="grid1743" />
    <sodipodi:guide
       position="165.36458,0"
       orientation="1,0"
       id="guide5902"
       inkscape:locked="false"
       inkscape:label=""
       inkscape:color="rgb(0,0,255)" />
    <sodipodi:guide
       position="46.302083,0"
       orientation="1,0"
       id="guide5904"
       inkscape:locked="false"
       inkscape:label=""
       inkscape:color="rgb(0,0,255)" />
    <sodipodi:guide
       position="0,48.947916"
       orientation="0,1"
       id="guide6031"
       inkscape:locked="false"
       inkscape:label=""
       inkscape:color="rgb(0,0,255)" />
    <sodipodi:guide
       position="0,30.427083"
       orientation="0,1"
       id="guide6178"
       inkscape:locked="false"
       inkscape:label=""
       inkscape:color="rgb(0,0,255)" />
  </sodipodi:namedview>
  <metadata
     id="metadata1195">
    <rdf:RDF>
      <cc:Work
         rdf:about="">
        <dc:format>image/svg+xml</dc:format>
        <dc:type
           rdf:resource="http://purl.org/dc/dcmitype/StillImage" />
        <dc:title />
      </cc:Work>
    </rdf:RDF>
  </metadata>
  <g
     inkscape:groupmode="layer"
     id="layer6"
     inkscape:label="Hidden Fill"
     style="display:none"
     sodipodi:insensitive="true" />
  <g
     inkscape:groupmode="layer"
     id="layer2"
     inkscape:label="Fill"
     style="display:inline">
    <path
       inkscape:connector-curvature="0"
       style="display:inline;opacity:1;vector-effect:none;fill:url(#linearGradient1003);fill-opacity:1.0;stroke:url(#linearGradient1005);stroke-width:1.85208333;stroke-linecap:round;stroke-linejoin:round;stroke-miterlimit:4;stroke-dasharray:none;stroke-dashoffset:0;stroke-opacity:1;paint-order:normal"
       d="m 165.36457,43.788548 h 9.26043 v 9.26042 h -9.26043 z"
       id="path1639-0-9-1-8-9-1"
       sodipodi:nodetypes="ccccc" />
    <path
       inkscape:connector-curvature="0"
       style="display:inline;opacity:1;vector-effect:none;fill:url(#linearGradient1003-4);fill-opacity:1.0;stroke:url(#linearGradient1005-7);stroke-width:1.85208333;stroke-linecap:round;stroke-linejoin:round;stroke-miterlimit:4;stroke-dasharray:none;stroke-dashoffset:0;stroke-opacity:1;paint-order:normal"
       d="m 174.625,43.788546 h 9.26042 v 9.260419 H 174.625 Z"
       id="path1639-0-9-1-8-9-1-6"
       sodipodi:nodetypes="ccccc" />
    <path
       inkscape:connector-curvature="0"
       style="display:inline;opacity:1;vector-effect:none;fill:url(#linearGradient983);fill-opacity:1.0;stroke:url(#linearGradient985);stroke-width:1.85208333;stroke-linecap:round;stroke-linejoin:round;stroke-miterlimit:4;stroke-dasharray:none;stroke-dashoffset:0;stroke-opacity:1;paint-order:normal"
       d="m 146.84375,34.528128 h 9.26042 v 9.26042 h -9.26042 z"
       id="path1639-0-9-1-82"
       sodipodi:nodetypes="ccccc" />
    <path
       inkscape:connector-curvature="0"
       style="display:inline;opacity:1;vector-effect:none;fill:url(#linearGradient987);fill-opacity:1.0;stroke:url(#linearGradient989);stroke-width:1.85208333;stroke-linecap:round;stroke-linejoin:round;stroke-miterlimit:4;stroke-dasharray:none;stroke-dashoffset:0;stroke-opacity:1;paint-order:normal"
       d="m 146.84375,43.788548 h 9.26042 v 9.26042 h -9.26042 z"
       id="path1639-0-9-1-8-3"
       sodipodi:nodetypes="ccccc" />
    <path
       inkscape:connector-curvature="0"
       style="display:inline;opacity:1;vector-effect:none;fill:url(#linearGradient991);fill-opacity:1.0;stroke:url(#linearGradient993);stroke-width:1.85208333;stroke-linecap:round;stroke-linejoin:round;stroke-miterlimit:4;stroke-dasharray:none;stroke-dashoffset:0;stroke-opacity:1;paint-order:normal"
       d="m 156.10417,34.528128 h 9.26041 v 9.26042 h -9.26042 z"
       id="path1639-0-9-1-9-6"
       sodipodi:nodetypes="ccccc" />
    <path
       inkscape:connector-curvature="0"
       style="display:inline;opacity:1;vector-effect:none;fill:url(#linearGradient995);fill-opacity:1.0;stroke:url(#linearGradient997);stroke-width:1.85208333;stroke-linecap:round;stroke-linejoin:round;stroke-miterlimit:4;stroke-dasharray:none;stroke-dashoffset:0;stroke-opacity:1;paint-order:normal"
       d="m 156.10417,43.788548 h 9.26041 v 9.26042 h -9.26042 z"
       id="path1639-0-9-1-8-6-1"
       sodipodi:nodetypes="ccccc" />
    <path
       inkscape:connector-curvature="0"
       style="display:inline;opacity:1;vector-effect:none;fill:url(#linearGradient999);fill-opacity:1.0;stroke:url(#linearGradient1001);stroke-width:1.85208333;stroke-linecap:round;stroke-linejoin:round;stroke-miterlimit:4;stroke-dasharray:none;stroke-dashoffset:0;stroke-opacity:1;paint-order:normal"
       d="m 165.36457,34.528128 h 9.26043 v 9.26042 h -9.26043 z"
       id="path1639-0-9-1-98-6"
       sodipodi:nodetypes="ccccc" />
    <path
       inkscape:connector-curvature="0"
       style="display:inline;opacity:1;vector-effect:none;fill:url(#linearGradient1206);fill-opacity:1;stroke:url(#linearGradient1208);stroke-width:1.85208333;stroke-linecap:round;stroke-linejoin:round;stroke-miterlimit:4;stroke-dasharray:none;stroke-dashoffset:0;stroke-opacity:1;paint-order:normal"
       d="m 146.84375,25.267707 h 9.26042 v 9.260421 h -9.26042 z"
       id="path1639-0-9-1-82-7"
       sodipodi:nodetypes="ccccc" />
    <path
       inkscape:connector-curvature="0"
       style="display:inline;opacity:1;vector-effect:none;fill:url(#linearGradient1210);fill-opacity:1;stroke:url(#linearGradient1212);stroke-width:1.85208333;stroke-linecap:round;stroke-linejoin:round;stroke-miterlimit:4;stroke-dasharray:none;stroke-dashoffset:0;stroke-opacity:1;paint-order:normal"
       d="m 156.10417,25.267707 h 9.26041 v 9.260421 h -9.26042 z"
       id="path1639-0-9-1-9-6-5"
       sodipodi:nodetypes="ccccc" />
    <path
       inkscape:connector-curvature="0"
       style="display:inline;opacity:1;vector-effect:none;fill:url(#linearGradient999-4);fill-opacity:1;stroke:url(#linearGradient1001-7);stroke-width:1.85208333;stroke-linecap:round;stroke-linejoin:round;stroke-miterlimit:4;stroke-dasharray:none;stroke-dashoffset:0;stroke-opacity:1;paint-order:normal"
       d="m 165.36457,25.267707 h 9.26043 v 9.260421 h -9.26043 z"
       id="path1639-0-9-1-98-6-9"
       sodipodi:nodetypes="ccccc" />
    <path
       inkscape:connector-curvature="0"
       style="display:inline;opacity:1;vector-effect:none;fill:url(#linearGradient1292);fill-opacity:1.0;stroke:url(#linearGradient1294);stroke-width:1.85208333;stroke-linecap:round;stroke-linejoin:round;stroke-miterlimit:4;stroke-dasharray:none;stroke-dashoffset:0;stroke-opacity:1;paint-order:normal"
       d="m 174.625,34.528126 h 9.26042 v 9.26042 H 174.625 Z"
       id="path1639-0-9-1-98-6-4"
       sodipodi:nodetypes="ccccc" />
    <path
       inkscape:connector-curvature="0"
       style="display:inline;opacity:1;vector-effect:none;fill:url(#linearGradient999-4-4);fill-opacity:1;stroke:url(#linearGradient1001-7-5);stroke-width:1.85208333;stroke-linecap:round;stroke-linejoin:round;stroke-miterlimit:4;stroke-dasharray:none;stroke-dashoffset:0;stroke-opacity:1;paint-order:normal"
       d="m 174.625,25.267705 h 9.26042 v 9.260421 H 174.625 Z"
       id="path1639-0-9-1-98-6-9-7"
       sodipodi:nodetypes="ccccc" />
    <path
       inkscape:connector-curvature="0"
       style="display:inline;opacity:1;vector-effect:none;fill:url(#linearGradient11295);fill-opacity:1.0;stroke:url(#linearGradient11291);stroke-width:1.85208333;stroke-linecap:round;stroke-linejoin:round;stroke-miterlimit:4;stroke-dasharray:none;stroke-dashoffset:0;stroke-opacity:1;paint-order:normal"
       d="m 41.671877,34.528124 h 9.260417 v 9.26042 h -9.260421 z"
       id="path1639-0-9-1-4-2"
       sodipodi:nodetypes="ccccc" />
    <path
       inkscape:connector-curvature="0"
       style="display:inline;opacity:1;vector-effect:none;fill:url(#linearGradient11295-0);fill-opacity:1;stroke:url(#linearGradient11291-5);stroke-width:1.85208333;stroke-linecap:round;stroke-linejoin:round;stroke-miterlimit:4;stroke-dasharray:none;stroke-dashoffset:0;stroke-opacity:1;paint-order:normal"
       d="m 41.671877,25.267704 h 9.260417 v 9.26042 h -9.260421 z"
       id="path1639-0-9-1-4-2-1"
       sodipodi:nodetypes="ccccc" />
    <path
       inkscape:connector-curvature="0"
       style="display:inline;opacity:1;vector-effect:none;fill:url(#linearGradient11295-2);fill-opacity:1.0;stroke:url(#linearGradient11291-8);stroke-width:1.85208333;stroke-linecap:round;stroke-linejoin:round;stroke-miterlimit:4;stroke-dasharray:none;stroke-dashoffset:0;stroke-opacity:1;paint-order:normal"
       d="m 41.671877,43.788549 h 9.260417 v 9.26042 h -9.260421 z"
       id="path1639-0-9-1-4-2-3"
       sodipodi:nodetypes="ccccc" />
  </g>
  <g
     inkscape:label="Frame"
     inkscape:groupmode="layer"
     id="layer1"
     transform="translate(0,-208.89373)"
     style="display:inline"
     sodipodi:insensitive="true">
    <g
       id="g1455"
       transform="translate(0.926035,3.6124999e-6)">
      <path
         sodipodi:nodetypes="ccccc"
         id="path1639-0-9-1"
         d="m 145.91771,243.42185 h 9.26042 v 9.26042 h -9.26042 z"
         style="display:inline;opacity:1;vector-effect:none;fill:none;fill-opacity:1;stroke:#000000;stroke-width:0.95743406;stroke-linecap:round;stroke-linejoin:round;stroke-miterlimit:4;stroke-dasharray:none;stroke-dashoffset:0;stroke-opacity:1;paint-order:normal"
         inkscape:connector-curvature="0" />
      <path
         sodipodi:nodetypes="ccccc"
         id="path1639-0-9-1-8"
         d="m 145.91771,252.68227 h 9.26042 v 9.26042 h -9.26042 z"
         style="display:inline;opacity:1;vector-effect:none;fill:none;fill-opacity:1;stroke:#000000;stroke-width:0.95743406;stroke-linecap:round;stroke-linejoin:round;stroke-miterlimit:4;stroke-dasharray:none;stroke-dashoffset:0;stroke-opacity:1;paint-order:normal"
         inkscape:connector-curvature="0" />
      <path
         sodipodi:nodetypes="ccccc"
         id="path1639-0-9-1-9"
         d="m 155.17813,243.42185 h 9.26041 v 9.26042 h -9.26042 z"
         style="display:inline;opacity:1;vector-effect:none;fill:none;fill-opacity:1;stroke:#000000;stroke-width:0.95743406;stroke-linecap:round;stroke-linejoin:round;stroke-miterlimit:4;stroke-dasharray:none;stroke-dashoffset:0;stroke-opacity:1;paint-order:normal"
         inkscape:connector-curvature="0" />
      <path
         sodipodi:nodetypes="ccccc"
         id="path1639-0-9-1-8-6"
         d="m 155.17813,252.68227 h 9.26041 v 9.26042 h -9.26042 z"
         style="display:inline;opacity:1;vector-effect:none;fill:none;fill-opacity:1;stroke:#000000;stroke-width:0.95743406;stroke-linecap:round;stroke-linejoin:round;stroke-miterlimit:4;stroke-dasharray:none;stroke-dashoffset:0;stroke-opacity:1;paint-order:normal"
         inkscape:connector-curvature="0" />
      <path
         sodipodi:nodetypes="ccccc"
         id="path1639-0-9-1-98"
         d="m 164.43854,243.42185 h 9.26042 v 9.26042 h -9.26042 z"
         style="display:inline;opacity:1;vector-effect:none;fill:none;fill-opacity:1;stroke:#000000;stroke-width:0.95743406;stroke-linecap:round;stroke-linejoin:round;stroke-miterlimit:4;stroke-dasharray:none;stroke-dashoffset:0;stroke-opacity:1;paint-order:normal"
         inkscape:connector-curvature="0" />
      <path
         sodipodi:nodetypes="ccccc"
         id="path1639-0-9-1-8-9"
         d="m 164.43854,252.68227 h 9.26042 v 9.26042 h -9.26042 z"
         style="display:inline;opacity:1;vector-effect:none;fill:none;fill-opacity:1;stroke:#000000;stroke-width:0.95743406;stroke-linecap:round;stroke-linejoin:round;stroke-miterlimit:4;stroke-dasharray:none;stroke-dashoffset:0;stroke-opacity:1;paint-order:normal"
         inkscape:connector-curvature="0" />
      <path
         sodipodi:nodetypes="ccccc"
         id="path1639-0-9-1-6"
         d="m 145.91771,234.16143 h 9.26042 v 9.26042 h -9.26042 z"
         style="display:inline;opacity:1;vector-effect:none;fill:none;fill-opacity:1;stroke:#000000;stroke-width:0.95743406;stroke-linecap:round;stroke-linejoin:round;stroke-miterlimit:4;stroke-dasharray:none;stroke-dashoffset:0;stroke-opacity:1;paint-order:normal"
         inkscape:connector-curvature="0" />
      <path
         sodipodi:nodetypes="ccccc"
         id="path1639-0-9-1-9-7"
         d="m 155.17813,234.16143 h 9.26041 v 9.26042 h -9.26042 z"
         style="display:inline;opacity:1;vector-effect:none;fill:none;fill-opacity:1;stroke:#000000;stroke-width:0.95743406;stroke-linecap:round;stroke-linejoin:round;stroke-miterlimit:4;stroke-dasharray:none;stroke-dashoffset:0;stroke-opacity:1;paint-order:normal"
         inkscape:connector-curvature="0" />
      <path
         sodipodi:nodetypes="ccccc"
         id="path1639-0-9-1-98-9"
         d="m 164.43854,234.16143 h 9.26042 v 9.26042 h -9.26042 z"
         style="display:inline;opacity:1;vector-effect:none;fill:none;fill-opacity:1;stroke:#000000;stroke-width:0.95743406;stroke-linecap:round;stroke-linejoin:round;stroke-miterlimit:4;stroke-dasharray:none;stroke-dashoffset:0;stroke-opacity:1;paint-order:normal"
         inkscape:connector-curvature="0" />
      <path
         sodipodi:nodetypes="ccccc"
         id="path1639-0-9-1-98-0"
         d="m 173.69896,243.42185 h 9.26042 v 9.26042 h -9.26042 z"
         style="display:inline;opacity:1;vector-effect:none;fill:none;fill-opacity:1;stroke:#000000;stroke-width:0.95743406;stroke-linecap:round;stroke-linejoin:round;stroke-miterlimit:4;stroke-dasharray:none;stroke-dashoffset:0;stroke-opacity:1;paint-order:normal"
         inkscape:connector-curvature="0" />
      <path
         sodipodi:nodetypes="ccccc"
         id="path1639-0-9-1-8-9-7"
         d="m 173.69896,252.68227 h 9.26042 v 9.26042 h -9.26042 z"
         style="display:inline;opacity:1;vector-effect:none;fill:none;fill-opacity:1;stroke:#000000;stroke-width:0.95743406;stroke-linecap:round;stroke-linejoin:round;stroke-miterlimit:4;stroke-dasharray:none;stroke-dashoffset:0;stroke-opacity:1;paint-order:normal"
         inkscape:connector-curvature="0" />
      <path
         sodipodi:nodetypes="ccccc"
         id="path1639-0-9-1-98-9-8"
         d="m 173.69896,234.16143 h 9.26042 v 9.26042 h -9.26042 z"
         style="display:inline;opacity:1;vector-effect:none;fill:none;fill-opacity:1;stroke:#000000;stroke-width:0.95743406;stroke-linecap:round;stroke-linejoin:round;stroke-miterlimit:4;stroke-dasharray:none;stroke-dashoffset:0;stroke-opacity:1;paint-order:normal"
         inkscape:connector-curvature="0" />
    </g>
    <g
       id="g1429"
       transform="translate(-4.9999973e-7,-0.18274139)">
      <path
         sodipodi:nodetypes="ccccc"
         id="path1639-0-9-1-4"
         d="m 41.671877,243.60459 h 9.260417 v 9.26042 h -9.260421 z"
         style="display:inline;opacity:1;vector-effect:none;fill:none;fill-opacity:1;stroke:#000000;stroke-width:0.95743406;stroke-linecap:round;stroke-linejoin:round;stroke-miterlimit:4;stroke-dasharray:none;stroke-dashoffset:0;stroke-opacity:1;paint-order:normal"
         inkscape:connector-curvature="0" />
      <path
         sodipodi:nodetypes="ccccc"
         id="path1639-0-9-1-4-5"
         d="m 41.671877,234.34417 h 9.260417 v 9.26042 h -9.260421 z"
         style="display:inline;opacity:1;vector-effect:none;fill:none;fill-opacity:1;stroke:#000000;stroke-width:0.95743406;stroke-linecap:round;stroke-linejoin:round;stroke-miterlimit:4;stroke-dasharray:none;stroke-dashoffset:0;stroke-opacity:1;paint-order:normal"
         inkscape:connector-curvature="0" />
      <path
         sodipodi:nodetypes="ccccc"
         id="path1639-0-9-1-4-1"
         d="m 41.671877,252.86502 h 9.260417 v 9.26042 h -9.260421 z"
         style="display:inline;opacity:1;vector-effect:none;fill:none;fill-opacity:1;stroke:#000000;stroke-width:0.95743406;stroke-linecap:round;stroke-linejoin:round;stroke-miterlimit:4;stroke-dasharray:none;stroke-dashoffset:0;stroke-opacity:1;paint-order:normal"
         inkscape:connector-curvature="0" />
    </g>
  </g>
  <g
     inkscape:groupmode="layer"
     id="layer3"
     inkscape:label="Text"
     style="display:inline">
    <g
       id="lx-text855"
       transform="matrix(0.71538663,0,0,0.71538663,42.415835,62.552738)">
      <defs
         id="defs934">
        <g
           id="g6144">
          <symbol
             id="symbol6130"
             overflow="visible"
             style="overflow:visible">
            <path
               id="path6128"
               d=""
               style="stroke:none"
               inkscape:connector-curvature="0" />
          </symbol>
          <symbol
             id="symbol6134"
             overflow="visible"
             style="overflow:visible">
            <path
               id="path6132"
               d="M 3.015625,-3.15625 H 4.71875 c 1.40625,0 2.796875,-1.03125 2.796875,-2.140625 0,-0.78125 -0.65625,-1.515625 -1.96875,-1.515625 h -3.21875 c -0.1875,0 -0.296875,0 -0.296875,0.1875 0,0.125 0.078125,0.125 0.28125,0.125 0.125,0 0.3125,0.015625 0.421875,0.015625 0.171875,0.03125 0.21875,0.046875 0.21875,0.171875 0,0.03125 0,0.0625 -0.03125,0.1875 l -1.34375,5.34375 c -0.09375,0.390625 -0.109375,0.46875 -0.90625,0.46875 -0.15625,0 -0.265625,0 -0.265625,0.1875 C 0.40625,0 0.515625,0 0.546875,0 0.828125,0 1.53125,-0.03125 1.8125,-0.03125 c 0.21875,0 0.4375,0.015625 0.640625,0.015625 0.21875,0 0.4375,0.015625 0.640625,0.015625 0.078125,0 0.203125,0 0.203125,-0.203125 0,-0.109375 -0.09375,-0.109375 -0.28125,-0.109375 -0.359375,0 -0.640625,0 -0.640625,-0.171875 0,-0.0625 0.015625,-0.109375 0.03125,-0.171875 z M 3.734375,-6.125 C 3.828125,-6.46875 3.84375,-6.5 4.28125,-6.5 h 0.953125 c 0.828125,0 1.359375,0.265625 1.359375,0.953125 0,0.390625 -0.203125,1.25 -0.59375,1.609375 -0.5,0.453125 -1.09375,0.53125 -1.53125,0.53125 H 3.0625 Z m 0,0"
               style="stroke:none"
               inkscape:connector-curvature="0" />
          </symbol>
          <symbol
             id="symbol6138"
             overflow="visible"
             style="overflow:visible">
            <path
               id="path6136"
               d=""
               style="stroke:none"
               inkscape:connector-curvature="0" />
          </symbol>
          <symbol
             id="symbol6142"
             overflow="visible"
             style="overflow:visible">
            <path
               id="path6140"
               d="M 1.734375,-0.734375 C 1.671875,-0.5 1.4375,-0.125 1.078125,-0.125 c -0.015625,0 -0.234375,0 -0.375,-0.09375 0.28125,-0.09375 0.3125,-0.34375 0.3125,-0.390625 0,-0.15625 -0.125,-0.25 -0.28125,-0.25 -0.203125,0 -0.40625,0.15625 -0.40625,0.421875 0,0.34375 0.390625,0.5 0.734375,0.5 0.328125,0 0.609375,-0.1875 0.78125,-0.484375 C 2.015625,-0.0625 2.390625,0.0625 2.671875,0.0625 c 0.8125,0 1.234375,-0.859375 1.234375,-1.0625 0,-0.09375 -0.09375,-0.09375 -0.109375,-0.09375 -0.109375,0 -0.109375,0.046875 -0.140625,0.125 -0.140625,0.484375 -0.5625,0.84375 -0.953125,0.84375 -0.28125,0 -0.421875,-0.1875 -0.421875,-0.453125 0,-0.1875 0.171875,-0.8125 0.359375,-1.59375 C 2.78125,-2.703125 3.09375,-2.875 3.328125,-2.875 c 0.015625,0 0.21875,0 0.375,0.09375 -0.21875,0.0625 -0.3125,0.265625 -0.3125,0.390625 0,0.140625 0.125,0.25 0.28125,0.25 0.15625,0 0.390625,-0.125 0.390625,-0.421875 0,-0.390625 -0.453125,-0.515625 -0.71875,-0.515625 -0.359375,0 -0.640625,0.234375 -0.78125,0.5 -0.125,-0.28125 -0.453125,-0.5 -0.84375,-0.5 C 0.9375,-3.078125 0.5,-2.21875 0.5,-2 c 0,0.078125 0.09375,0.078125 0.109375,0.078125 0.09375,0 0.09375,-0.015625 0.140625,-0.109375 C 0.921875,-2.578125 1.359375,-2.875 1.703125,-2.875 1.9375,-2.875 2.125,-2.75 2.125,-2.421875 2.125,-2.28125 2.03125,-1.9375 1.96875,-1.6875 Z m 0,0"
               style="stroke:none"
               inkscape:connector-curvature="0" />
          </symbol>
        </g>
      </defs>
      <g
         id="lx-text855-surface1">
        <g
           id="g938"
           style="fill:#000000;fill-opacity:1">
          <use
             id="use936"
             y="0"
             x="0"
             xlink:href="#lx-text855-glyph0-1"
             width="100%"
             height="100%" />
        </g>
        <g
           id="g942"
           style="fill:#000000;fill-opacity:1">
          <use
             id="use940"
             y="1.495"
             x="6.3959999"
             xlink:href="#lx-text855-glyph1-1"
             width="100%"
             height="100%" />
        </g>
      </g>
    </g>
    <g
       id="lx-text855-4"
       transform="matrix(0.71538663,0,0,0.71538663,161.53422,62.552738)">
      <defs
         id="defs960">
        <g
           id="g6169">
          <symbol
             id="symbol6155"
             overflow="visible"
             style="overflow:visible">
            <path
               id="path6153"
               d=""
               style="stroke:none"
               inkscape:connector-curvature="0" />
          </symbol>
          <symbol
             id="symbol6159"
             overflow="visible"
             style="overflow:visible">
            <path
               id="path6157"
               d="M 3.015625,-3.15625 H 4.71875 c 1.40625,0 2.796875,-1.03125 2.796875,-2.140625 0,-0.78125 -0.65625,-1.515625 -1.96875,-1.515625 h -3.21875 c -0.1875,0 -0.296875,0 -0.296875,0.1875 0,0.125 0.078125,0.125 0.28125,0.125 0.125,0 0.3125,0.015625 0.421875,0.015625 0.171875,0.03125 0.21875,0.046875 0.21875,0.171875 0,0.03125 0,0.0625 -0.03125,0.1875 l -1.34375,5.34375 c -0.09375,0.390625 -0.109375,0.46875 -0.90625,0.46875 -0.15625,0 -0.265625,0 -0.265625,0.1875 C 0.40625,0 0.515625,0 0.546875,0 0.828125,0 1.53125,-0.03125 1.8125,-0.03125 c 0.21875,0 0.4375,0.015625 0.640625,0.015625 0.21875,0 0.4375,0.015625 0.640625,0.015625 0.078125,0 0.203125,0 0.203125,-0.203125 0,-0.109375 -0.09375,-0.109375 -0.28125,-0.109375 -0.359375,0 -0.640625,0 -0.640625,-0.171875 0,-0.0625 0.015625,-0.109375 0.03125,-0.171875 z M 3.734375,-6.125 C 3.828125,-6.46875 3.84375,-6.5 4.28125,-6.5 h 0.953125 c 0.828125,0 1.359375,0.265625 1.359375,0.953125 0,0.390625 -0.203125,1.25 -0.59375,1.609375 -0.5,0.453125 -1.09375,0.53125 -1.53125,0.53125 H 3.0625 Z m 0,0"
               style="stroke:none"
               inkscape:connector-curvature="0" />
          </symbol>
          <symbol
             id="symbol6163"
             overflow="visible"
             style="overflow:visible">
            <path
               id="path6161"
               d=""
               style="stroke:none"
               inkscape:connector-curvature="0" />
          </symbol>
          <symbol
             id="symbol6167"
             overflow="visible"
             style="overflow:visible">
            <path
               id="path6165"
               d="M 3.875,-2.625 C 3.90625,-2.71875 3.90625,-2.734375 3.90625,-2.78125 3.90625,-2.921875 3.796875,-3 3.671875,-3 3.59375,-3 3.46875,-2.96875 3.390625,-2.84375 3.359375,-2.796875 3.3125,-2.578125 3.28125,-2.4375 L 3.125,-1.859375 c -0.03125,0.171875 -0.25,1.046875 -0.28125,1.125 0,0 -0.3125,0.609375 -0.84375,0.609375 -0.484375,0 -0.484375,-0.453125 -0.484375,-0.578125 0,-0.375 0.15625,-0.8125 0.375,-1.359375 C 1.96875,-2.28125 2,-2.359375 2,-2.484375 2,-2.8125 1.71875,-3.078125 1.34375,-3.078125 0.640625,-3.078125 0.328125,-2.125 0.328125,-2 c 0,0.078125 0.09375,0.078125 0.125,0.078125 0.09375,0 0.09375,-0.03125 0.125,-0.109375 C 0.75,-2.609375 1.046875,-2.875 1.328125,-2.875 1.4375,-2.875 1.5,-2.796875 1.5,-2.640625 c 0,0.171875 -0.0625,0.3125 -0.09375,0.40625 C 1.0625,-1.375 1,-1.125 1,-0.8125 1,-0.703125 1,-0.375 1.265625,-0.140625 1.484375,0.03125 1.78125,0.0625 1.96875,0.0625 2.25,0.0625 2.5,-0.03125 2.71875,-0.25 2.640625,0.140625 2.5625,0.4375 2.265625,0.78125 2.078125,1 1.796875,1.21875 1.421875,1.21875 c -0.046875,0 -0.375,0 -0.515625,-0.21875 0.375,-0.046875 0.375,-0.375 0.375,-0.390625 0,-0.21875 -0.203125,-0.265625 -0.265625,-0.265625 -0.171875,0 -0.40625,0.140625 -0.40625,0.46875 0,0.34375 0.328125,0.609375 0.828125,0.609375 C 2.140625,1.421875 3,0.875 3.21875,0 Z m 0,0"
               style="stroke:none"
               inkscape:connector-curvature="0" />
          </symbol>
        </g>
      </defs>
      <g
         id="lx-text855-4-surface1">
        <g
           id="g964"
           style="fill:#000000;fill-opacity:1">
          <use
             id="use962"
             y="0"
             x="0"
             xlink:href="#lx-text855-4-glyph0-1"
             width="100%"
             height="100%" />
        </g>
        <g
           id="g968"
           style="fill:#000000;fill-opacity:1">
          <use
             id="use966"
             y="1.495"
             x="6.3959999"
             xlink:href="#lx-text855-4-glyph1-1"
             width="100%"
             height="100%" />
        </g>
      </g>
    </g>
  </g>
  <g
     inkscape:groupmode="layer"
     id="layer4"
     inkscape:label="Arrow"
     style="display:inline">
    <path
       inkscape:connector-curvature="0"
       id="path7160"
       d="M 78.181254,39.171045 H 123.16042"
       style="fill:none;stroke:#000000;stroke-width:1.32291666;stroke-linecap:round;stroke-linejoin:round;stroke-miterlimit:4;stroke-dasharray:none;stroke-opacity:1;marker-end:url(#Arrow2Mend-0)" />
  </g>
  <g
     inkscape:groupmode="layer"
     id="layer5"
     inkscape:label="X"
     style="display:none"
     sodipodi:insensitive="true">
    <g
       id="g10663"
       style="stroke:#bf0000;stroke-opacity:1"
       transform="rotate(45,52.360628,12.265522)">
      <path
         sodipodi:nodetypes="cc"
         style="display:inline;fill:none;stroke:#bf0000;stroke-width:1.85208333;stroke-linecap:round;stroke-linejoin:round;stroke-miterlimit:4;stroke-dasharray:none;stroke-opacity:1"
         d="M 91.281244,-1.8520833 H 117.73958"
         id="path7160-4"
         inkscape:connector-curvature="0" />
      <path
         sodipodi:nodetypes="cc"
         style="display:inline;fill:none;stroke:#bf0000;stroke-width:1.85208333;stroke-linecap:round;stroke-linejoin:round;stroke-miterlimit:4;stroke-dasharray:none;stroke-opacity:1"
         d="m 104.51041,-15.081253 v 26.45834"
         id="path7160-4-7"
         inkscape:connector-curvature="0" />
    </g>
  </g>
</svg>
